BodoniModa-96ptRegular.ufo
<glyph name="quotesingle" format="2">
  <advance width="399"/>
  <unicode hex="0027"/>
  <outline>
    <contour>
      <point x="198" y="976" type="curve"/>
      <point x="202" y="976" type="line"/>
      <point x="202" y="1196"/>
      <point x="276" y="1212"/>
      <point x="298" y="1362" type="curve" smooth="yes"/>
      <point x="300" y="1376"/>
      <point x="300" y="1386"/>
      <point x="300" y="1398" type="curve" smooth="yes"/>
      <point x="300" y="1476"/>
      <point x="258" y="1520"/>
      <point x="200" y="1520" type="curve" smooth="yes"/>
      <point x="142" y="1520"/>
      <point x="100" y="1476"/>
      <point x="100" y="1398" type="curve" smooth="yes"/>
      <point x="100" y="1386"/>
      <point x="100" y="1376"/>
      <point x="102" y="1362" type="curve" smooth="yes"/>
      <point x="124" y="1212"/>
      <point x="198" y="1196"/>
    </contour>
  </outline>
</glyph>
<glyph name="D" format="2">
  <advance width="1399"/>
  <unicode hex="0044"/>
  <anchor x="583" y="0" name="bottom"/>
  <anchor x="583" y="0" name="cedilla"/>
  <anchor x="584" y="1500" name="top"/>
  <outline>
    <contour>
      <point x="596" y="1500" type="curve" smooth="yes"/>
      <point x="37" y="1500" type="line"/>
      <point x="37" y="1496" type="line"/>
      <point x="216" y="1496" type="line"/>
      <point x="216" y="4" type="line"/>
      <point x="37" y="4" type="line"/>
      <point x="37" y="0" type="line"/>
      <point x="596" y="0" type="line" smooth="yes"/>
      <point x="1022" y="0"/>
      <point x="1317" y="324"/>
      <point x="1317" y="750" type="curve" smooth="yes"/>
      <point x="1317" y="1176"/>
      <point x="1042" y="1500"/>
    </contour>
    <contour>
      <point x="407" y="4" type="line"/>
      <point x="407" y="1496" type="line"/>
      <point x="596" y="1496" type="line" smooth="yes"/>
      <point x="944" y="1496"/>
      <point x="1086" y="1114"/>
      <point x="1086" y="750" type="curve" smooth="yes"/>
      <point x="1086" y="386"/>
      <point x="964" y="4"/>
      <point x="596" y="4" type="curve" smooth="yes"/>
    </contour>
  </outline>
</glyph>
<glyph name="P" format="2">
  <advance width="1229"/>
  <unicode hex="0050"/>
  <anchor x="312" y="0" name="bottom"/>
  <anchor x="536" y="1500" name="top"/>
  <outline>
    <contour>
      <point x="626" y="1500" type="curve" smooth="yes"/>
      <point x="37" y="1500" type="line"/>
      <point x="37" y="1496" type="line"/>
      <point x="216" y="1496" type="line"/>
      <point x="216" y="4" type="line"/>
      <point x="37" y="4" type="line"/>
      <point x="37" y="0" type="line"/>
      <point x="586" y="0" type="line"/>
      <point x="586" y="4" type="line"/>
      <point x="407" y="4" type="line"/>
      <point x="407" y="678" type="line"/>
      <point x="626" y="678" type="line" smooth="yes"/>
      <point x="988" y="678"/>
      <point x="1147" y="820"/>
      <point x="1147" y="1080" type="curve" smooth="yes"/>
      <point x="1147" y="1340"/>
      <point x="988" y="1500"/>
    </contour>
    <contour>
      <point x="407" y="682" type="line"/>
      <point x="407" y="1496" type="line"/>
      <point x="626" y="1496" type="line" smooth="yes"/>
      <point x="818" y="1496"/>
      <point x="926" y="1258"/>
      <point x="926" y="1080" type="curve" smooth="yes"/>
      <point x="926" y="902"/>
      <point x="818" y="682"/>
      <point x="626" y="682" type="curve" smooth="yes"/>
    </contour>
  </outline>
</glyph>
<glyph name="R" format="2">
  <advance width="1391"/>
  <unicode hex="0052"/>
  <anchor x="716" y="0" name="bottom"/>
  <anchor x="348" y="0" name="cedilla"/>
  <anchor x="636" y="1500" name="top"/>
  <outline>
    <contour>
      <point x="397" y="768" type="line"/>
      <point x="697" y="768" type="line" smooth="yes"/>
      <point x="1019" y="768"/>
      <point x="1197" y="870"/>
      <point x="1197" y="1130" type="curve" smooth="yes"/>
      <point x="1197" y="1390"/>
      <point x="999" y="1500"/>
      <point x="697" y="1500" type="curve" smooth="yes"/>
      <point x="37" y="1500" type="line"/>
      <point x="37" y="1496" type="line"/>
      <point x="697" y="1496" type="line" smooth="yes"/>
      <point x="889" y="1496"/>
      <point x="997" y="1348"/>
      <point x="997" y="1130" type="curve" smooth="yes"/>
      <point x="997" y="912"/>
      <point x="889" y="772"/>
      <point x="697" y="772" type="curve" smooth="yes"/>
      <point x="397" y="772" type="line"/>
    </contour>
    <contour>
      <point x="37" y="0" type="line"/>
      <point x="667" y="0" type="line"/>
      <point x="667" y="4" type="line"/>
      <point x="37" y="4" type="line"/>
    </contour>
    <contour>
      <point x="256" y="2" type="line"/>
      <point x="447" y="2" type="line"/>
      <point x="447" y="1498" type="line"/>
      <point x="256" y="1498" type="line"/>
    </contour>
    <contour>
      <point x="1187" y="-10" type="curve" smooth="yes"/>
      <point x="1275" y="-10"/>
      <point x="1335" y="4"/>
      <point x="1367" y="22" type="curve"/>
      <point x="1365" y="24" type="line"/>
      <point x="1337" y="10"/>
      <point x="1298" y="0"/>
      <point x="1256" y="0" type="curve" smooth="yes"/>
      <point x="1010" y="0"/>
      <point x="1413" y="772"/>
      <point x="727" y="772" type="curve" smooth="yes"/>
      <point x="397" y="772" type="line"/>
      <point x="397" y="768" type="line"/>
      <point x="687" y="768" type="line" smooth="yes"/>
      <point x="1179" y="768"/>
      <point x="721" y="-10"/>
    </contour>
  </outline>
</glyph>
<glyph name="backslash" format="2">
  <advance width="1039"/>
  <unicode hex="005C"/>
  <outline>
    <contour>
      <point x="956" y="-300" type="line"/>
      <point x="960" y="-300" type="line"/>
      <point x="84" y="1560" type="line"/>
      <point x="80" y="1560" type="line"/>
    </contour>
  </outline>
</glyph>
<glyph name="d" format="2">
  <advance width="1194"/>
  <unicode hex="0064"/>
  <anchor x="656" y="0" name="bottom"/>
  <anchor x="976" y="0" name="cedilla"/>
  <anchor x="597" y="460" name="center"/>
  <anchor x="496" y="920" name="top"/>
  <anchor x="1124" y="920" name="topright"/>
  <outline>
    <contour>
      <point x="519" y="-18" type="curve" smooth="yes"/>
      <point x="699" y="-18"/>
      <point x="808" y="120"/>
      <point x="830" y="365" type="curve"/>
      <point x="830" y="0" type="line"/>
      <point x="1131" y="0" type="line"/>
      <point x="1131" y="4" type="line"/>
      <point x="1011" y="4" type="line"/>
      <point x="1011" y="1500" type="line"/>
      <point x="710" y="1500" type="line"/>
      <point x="710" y="1496" type="line"/>
      <point x="830" y="1496" type="line"/>
      <point x="830" y="555" type="line"/>
      <point x="808" y="800"/>
      <point x="699" y="940"/>
      <point x="519" y="940" type="curve" smooth="yes"/>
      <point x="301" y="940"/>
      <point x="95" y="760"/>
      <point x="95" y="460" type="curve" smooth="yes"/>
      <point x="95" y="160"/>
      <point x="301" y="-18"/>
    </contour>
    <contour>
      <point x="549" y="-4" type="curve" smooth="yes"/>
      <point x="381" y="-4"/>
      <point x="305" y="192"/>
      <point x="305" y="460" type="curve" smooth="yes"/>
      <point x="305" y="728"/>
      <point x="381" y="926"/>
      <point x="549" y="926" type="curve" smooth="yes"/>
      <point x="705" y="926"/>
      <point x="830" y="768"/>
      <point x="830" y="460" type="curve" smooth="yes"/>
      <point x="830" y="152"/>
      <point x="705" y="-4"/>
    </contour>
  </outline>
</glyph>
<glyph name="k" format="2">
  <advance width="1180"/>
  <unicode hex="006B"/>
  <anchor x="606" y="0" name="bottom"/>
  <anchor x="796" y="920" name="top"/>
  <outline>
    <contour>
      <point x="64" y="0" type="line"/>
      <point x="544" y="0" type="line"/>
      <point x="544" y="4" type="line"/>
      <point x="404" y="4" type="line"/>
      <point x="404" y="1500" type="line"/>
      <point x="64" y="1500" type="line"/>
      <point x="64" y="1496" type="line"/>
      <point x="225" y="1496" type="line"/>
      <point x="225" y="4" type="line"/>
      <point x="64" y="4" type="line"/>
    </contour>
    <contour>
      <point x="683" y="0" type="line"/>
      <point x="1137" y="0" type="line"/>
      <point x="1137" y="4" type="line"/>
      <point x="1058" y="4" type="line"/>
      <point x="528" y="626" type="line"/>
      <point x="893" y="916" type="line"/>
      <point x="1068" y="916" type="line"/>
      <point x="1068" y="920" type="line"/>
      <point x="662" y="920" type="line"/>
      <point x="662" y="916" type="line"/>
      <point x="888" y="916" type="line"/>
      <point x="389" y="522" type="line"/>
      <point x="831" y="4" type="line"/>
      <point x="683" y="4" type="line"/>
    </contour>
  </outline>
</glyph>
<glyph name="n" format="2">
  <advance width="1158"/>
  <unicode hex="006E"/>
  <anchor x="586" y="0" name="bottom"/>
  <anchor x="616" y="920" name="top"/>
  <outline>
    <contour>
      <point x="364" y="920" type="line"/>
      <point x="64" y="920" type="line"/>
      <point x="64" y="916" type="line"/>
      <point x="185" y="916" type="line"/>
      <point x="185" y="4" type="line"/>
      <point x="64" y="4" type="line"/>
      <point x="64" y="0" type="line"/>
      <point x="484" y="0" type="line"/>
      <point x="484" y="4" type="line"/>
      <point x="364" y="4" type="line"/>
    </contour>
    <contour>
      <point x="975" y="638" type="line" smooth="yes"/>
      <point x="975" y="812"/>
      <point x="924" y="940"/>
      <point x="690" y="940" type="curve" smooth="yes"/>
      <point x="374" y="940"/>
      <point x="360" y="626"/>
      <point x="360" y="436" type="curve"/>
      <point x="364" y="446" type="line"/>
      <point x="364" y="624"/>
      <point x="387" y="932"/>
      <point x="673" y="932" type="curve" smooth="yes"/>
      <point x="785" y="932"/>
      <point x="794" y="784"/>
      <point x="794" y="616" type="curve" smooth="yes"/>
      <point x="794" y="4" type="line"/>
      <point x="675" y="4" type="line"/>
      <point x="675" y="0" type="line"/>
      <point x="1095" y="0" type="line"/>
      <point x="1095" y="4" type="line"/>
      <point x="975" y="4" type="line"/>
    </contour>
  </outline>
</glyph>
<glyph name="p" format="2">
  <advance width="1194"/>
  <unicode hex="0070"/>
  <anchor x="746" y="0" name="bottom"/>
  <anchor x="656" y="920" name="top"/>
  <outline>
    <contour>
      <point x="64" y="-500" type="line"/>
      <point x="484" y="-500" type="line"/>
      <point x="484" y="-496" type="line"/>
      <point x="364" y="-496" type="line"/>
      <point x="364" y="366" type="line"/>
      <point x="386" y="120"/>
      <point x="497" y="-20"/>
      <point x="677" y="-20" type="curve" smooth="yes"/>
      <point x="895" y="-20"/>
      <point x="1101" y="160"/>
      <point x="1101" y="460" type="curve" smooth="yes"/>
      <point x="1101" y="760"/>
      <point x="895" y="938"/>
      <point x="677" y="938" type="curve" smooth="yes"/>
      <point x="497" y="938"/>
      <point x="386" y="800"/>
      <point x="364" y="554" type="curve"/>
      <point x="364" y="920" type="line"/>
      <point x="64" y="920" type="line"/>
      <point x="64" y="916" type="line"/>
      <point x="185" y="916" type="line"/>
      <point x="185" y="-496" type="line"/>
      <point x="64" y="-496" type="line"/>
    </contour>
    <contour>
      <point x="646" y="-6" type="curve" smooth="yes"/>
      <point x="490" y="-6"/>
      <point x="364" y="152"/>
      <point x="364" y="460" type="curve" smooth="yes"/>
      <point x="364" y="768"/>
      <point x="490" y="924"/>
      <point x="646" y="924" type="curve" smooth="yes"/>
      <point x="814" y="924"/>
      <point x="891" y="728"/>
      <point x="891" y="460" type="curve" smooth="yes"/>
      <point x="891" y="192"/>
      <point x="814" y="-6"/>
    </contour>
  </outline>
</glyph>
<glyph name="y" format="2">
  <advance width="1104"/>
  <unicode hex="0079"/>
  <anchor x="296" y="-500" name="bottom"/>
  <anchor x="616" y="920" name="top"/>
  <outline>
    <contour>
      <point x="314" y="916" type="line"/>
      <point x="470" y="916" type="line"/>
      <point x="470" y="920" type="line"/>
      <point x="24" y="920" type="line"/>
      <point x="24" y="916" type="line"/>
      <point x="114" y="916" type="line"/>
      <point x="575" y="-44" type="line"/>
      <point x="668" y="190" type="line"/>
    </contour>
    <contour>
      <point x="1101" y="920" type="line"/>
      <point x="790" y="920" type="line"/>
      <point x="790" y="916" type="line"/>
      <point x="961" y="916" type="line"/>
      <point x="414" y="-428" type="line"/>
      <point x="412" y="-359"/>
      <point x="352" y="-309"/>
      <point x="293" y="-309" type="curve" smooth="yes"/>
      <point x="229" y="-309"/>
      <point x="182" y="-354"/>
      <point x="182" y="-420" type="curve" smooth="yes"/>
      <point x="182" y="-496"/>
      <point x="245" y="-527"/>
      <point x="295" y="-527" type="curve" smooth="yes"/>
      <point x="371" y="-527"/>
      <point x="399" y="-478"/>
      <point x="435" y="-396" type="curve"/>
      <point x="967" y="916" type="line"/>
      <point x="1101" y="916" type="line"/>
    </contour>
  </outline>
</glyph>
<glyph name="exclamdown" format="2">
  <advance width="637"/>
  <unicode hex="00A1"/>
  <outline>
    <contour>
      <point x="326" y="-476" type="curve" smooth="yes"/>
      <point x="420" y="-476"/>
      <point x="444" y="-408"/>
      <point x="444" y="-316" type="curve" smooth="yes"/>
      <point x="444" y="-304"/>
      <point x="444" y="-292"/>
      <point x="444" y="-278" type="curve" smooth="yes"/>
      <point x="422" y="74"/>
      <point x="327" y="324"/>
      <point x="327" y="624" type="curve"/>
      <point x="324" y="624" type="line"/>
      <point x="324" y="324"/>
      <point x="230" y="74"/>
      <point x="208" y="-278" type="curve" smooth="yes"/>
      <point x="208" y="-292"/>
      <point x="205" y="-304"/>
      <point x="205" y="-316" type="curve" smooth="yes"/>
      <point x="205" y="-408"/>
      <point x="232" y="-476"/>
    </contour>
    <contour>
      <point x="324" y="819" type="curve" smooth="yes"/>
      <point x="390" y="819"/>
      <point x="444" y="874"/>
      <point x="444" y="940" type="curve" smooth="yes"/>
      <point x="444" y="1006"/>
      <point x="390" y="1060"/>
      <point x="324" y="1060" type="curve" smooth="yes"/>
      <point x="258" y="1060"/>
      <point x="204" y="1006"/>
      <point x="204" y="940" type="curve" smooth="yes"/>
      <point x="204" y="874"/>
      <point x="258" y="819"/>
    </contour>
  </outline>
</glyph>
<glyph name="currency" format="2">
  <advance width="1140"/>
  <unicode hex="00A4"/>
  <outline>
    <contour>
      <point x="86" y="282" type="line"/>
      <point x="243" y="439" type="line"/>
      <point x="322" y="359"/>
      <point x="434" y="310"/>
      <point x="571" y="310" type="curve" smooth="yes"/>
      <point x="708" y="310"/>
      <point x="820" y="360"/>
      <point x="899" y="439" type="curve"/>
      <point x="1054" y="283" type="line"/>
      <point x="1057" y="286" type="line"/>
      <point x="902" y="442" type="line"/>
      <point x="983" y="526"/>
      <point x="1028" y="643"/>
      <point x="1028" y="770" type="curve" smooth="yes"/>
      <point x="1028" y="897"/>
      <point x="983" y="1014"/>
      <point x="901" y="1097" type="curve"/>
      <point x="1058" y="1254" type="line"/>
      <point x="1055" y="1256" type="line"/>
      <point x="898" y="1100" type="line"/>
      <point x="820" y="1180"/>
      <point x="708" y="1229"/>
      <point x="571" y="1229" type="curve" smooth="yes"/>
      <point x="434" y="1229"/>
      <point x="322" y="1180"/>
      <point x="243" y="1100" type="curve"/>
      <point x="86" y="1257" type="line"/>
      <point x="83" y="1254" type="line"/>
      <point x="240" y="1097" type="line"/>
      <point x="158" y="1014"/>
      <point x="112" y="897"/>
      <point x="112" y="770" type="curve" smooth="yes"/>
      <point x="112" y="643"/>
      <point x="158" y="526"/>
      <point x="240" y="442" type="curve"/>
      <point x="84" y="285" type="line"/>
    </contour>
    <contour>
      <point x="571" y="314" type="curve" smooth="yes"/>
      <point x="292" y="314"/>
      <point x="116" y="522"/>
      <point x="116" y="770" type="curve" smooth="yes"/>
      <point x="116" y="1018"/>
      <point x="292" y="1225"/>
      <point x="571" y="1225" type="curve" smooth="yes"/>
      <point x="851" y="1225"/>
      <point x="1024" y="1018"/>
      <point x="1024" y="770" type="curve" smooth="yes"/>
      <point x="1024" y="522"/>
      <point x="851" y="314"/>
    </contour>
  </outline>
</glyph>
<glyph name="ordfeminine" format="2">
  <advance width="619"/>
  <unicode hex="00AA"/>
  <anchor x="307.6" y="964" name="bottom"/>
  <anchor x="556" y="964" name="ogonek"/>
  <anchor x="301.6" y="1516" name="top"/>
  <outline>
    <contour>
      <point x="494.8" y="952" type="curve" smooth="yes"/>
      <point x="554.2" y="952"/>
      <point x="603.4" y="988"/>
      <point x="624.4" y="1039" type="curve"/>
      <point x="622.6" y="1040.2" type="line"/>
      <point x="602.8" y="994.6"/>
      <point x="563.8" y="965.2"/>
      <point x="535.6" y="965.2" type="curve" smooth="yes"/>
      <point x="500.8" y="965.2"/>
      <point x="492.4" y="989.8"/>
      <point x="492.4" y="1018.6" type="curve" smooth="yes"/>
      <point x="492.4" y="1329.4" type="line" smooth="yes"/>
      <point x="492.4" y="1426.6"/>
      <point x="467.8" y="1525.6"/>
      <point x="302.8" y="1525.6" type="curve" smooth="yes"/>
      <point x="193.6" y="1525.6"/>
      <point x="89.2" y="1477.6"/>
      <point x="89.2" y="1403.2" type="curve" smooth="yes"/>
      <point x="89.2" y="1360"/>
      <point x="118" y="1337.2"/>
      <point x="154.6" y="1337.2" type="curve" smooth="yes"/>
      <point x="187.6" y="1337.2"/>
      <point x="223" y="1357.6"/>
      <point x="223" y="1405.6" type="curve" smooth="yes"/>
      <point x="223" y="1446.4"/>
      <point x="188.8" y="1469.2"/>
      <point x="154.6" y="1469.2" type="curve" smooth="yes"/>
      <point x="122.8" y="1469.2"/>
      <point x="90.4" y="1444"/>
      <point x="90.4" y="1403.2" type="curve"/>
      <point x="91.6" y="1403.2" type="line"/>
      <point x="91.6" y="1473.4"/>
      <point x="189.4" y="1519.6"/>
      <point x="278.8" y="1519.6" type="curve" smooth="yes"/>
      <point x="374.8" y="1519.6"/>
      <point x="384.4" y="1415.8"/>
      <point x="384.4" y="1329.4" type="curve" smooth="yes"/>
      <point x="384.4" y="1054" type="line" smooth="yes"/>
      <point x="384.4" y="968.2"/>
      <point x="438.4" y="952"/>
    </contour>
    <contour>
      <point x="218.2" y="952" type="curve" smooth="yes"/>
      <point x="340" y="952"/>
      <point x="386.8" y="1043.2"/>
      <point x="386.8" y="1180.6" type="curve"/>
      <point x="384.4" y="1180.6" type="line"/>
      <point x="384.4" y="1027"/>
      <point x="323.8" y="965.2"/>
      <point x="252.4" y="965.2" type="curve" smooth="yes"/>
      <point x="189.4" y="965.2"/>
      <point x="170.8" y="1045.6"/>
      <point x="170.8" y="1105.6" type="curve" smooth="yes"/>
      <point x="170.8" y="1171"/>
      <point x="204.4" y="1264"/>
      <point x="310" y="1264" type="curve" smooth="yes"/>
      <point x="440.2" y="1264" type="line"/>
      <point x="440.2" y="1266.4" type="line"/>
      <point x="310" y="1266.4" type="line" smooth="yes"/>
      <point x="139.6" y="1266.4"/>
      <point x="47.2" y="1207"/>
      <point x="47.2" y="1100.2" type="curve" smooth="yes"/>
      <point x="47.2" y="1009"/>
      <point x="114.4" y="952"/>
    </contour>
  </outline>
</glyph>
<glyph name="plusminus" format="2">
  <advance width="1059"/>
  <unicode hex="00B1"/>
  <outline>
    <contour>
      <point x="120" y="770" type="line"/>
      <point x="939" y="770" type="line"/>
      <point x="939" y="774" type="line"/>
      <point x="120" y="774" type="line"/>
    </contour>
    <contour>
      <point x="120.823" y="19" type="line"/>
      <point x="940.116" y="19" type="line"/>
      <point x="940.116" y="23" type="line"/>
      <point x="120.823" y="23" type="line"/>
    </contour>
    <contour>
      <point x="527" y="361" type="line"/>
      <point x="531" y="361" type="line"/>
      <point x="531" y="1180" type="line"/>
      <point x="527" y="1180" type="line"/>
    </contour>
  </outline>
</glyph>
<glyph name="threesuperior" format="2">
  <advance width="899"/>
  <unicode hex="00B3"/>
  <outline>
    <contour>
      <point x="407.2" y="902" type="curve" smooth="yes"/>
      <point x="576.4" y="902"/>
      <point x="707.2" y="998"/>
      <point x="707.2" y="1154" type="curve" smooth="yes"/>
      <point x="707.2" y="1286.6"/>
      <point x="638.8" y="1401.2"/>
      <point x="349.6" y="1401.2" type="curve"/>
      <point x="349.6" y="1399.4" type="line"/>
      <point x="552.4" y="1399.4"/>
      <point x="586" y="1260.8"/>
      <point x="586" y="1154" type="curve" smooth="yes"/>
      <point x="586" y="1023.2"/>
      <point x="526" y="910.4"/>
      <point x="383.2" y="910.4" type="curve" smooth="yes"/>
      <point x="237.4" y="910.4"/>
      <point x="162.4" y="988.4"/>
      <point x="162.4" y="1074.8" type="curve"/>
      <point x="161.2" y="1074.8" type="line"/>
      <point x="161.2" y="1044.8"/>
      <point x="193.6" y="1022"/>
      <point x="228.4" y="1022" type="curve" smooth="yes"/>
      <point x="263.8" y="1022"/>
      <point x="296.2" y="1046.6"/>
      <point x="296.2" y="1085" type="curve" smooth="yes"/>
      <point x="296.2" y="1128.2"/>
      <point x="268.6" y="1151.6"/>
      <point x="232" y="1151.6" type="curve" smooth="yes"/>
      <point x="190" y="1151.6"/>
      <point x="160" y="1124"/>
      <point x="160" y="1074.8" type="curve" smooth="yes"/>
      <point x="160" y="987.8"/>
      <point x="236.8" y="902"/>
    </contour>
    <contour>
      <point x="349.6" y="1400" type="line"/>
      <point x="626.8" y="1400"/>
      <point x="671.2" y="1503.2"/>
      <point x="671.2" y="1623.2" type="curve" smooth="yes"/>
      <point x="671.2" y="1755.8"/>
      <point x="553" y="1824.8"/>
      <point x="419.2" y="1824.8" type="curve" smooth="yes"/>
      <point x="296.8" y="1824.8"/>
      <point x="195.4" y="1748"/>
      <point x="195.4" y="1661" type="curve" smooth="yes"/>
      <point x="195.4" y="1611.8"/>
      <point x="228.4" y="1586.6"/>
      <point x="265" y="1586.6" type="curve" smooth="yes"/>
      <point x="295" y="1586.6"/>
      <point x="332.8" y="1605.2"/>
      <point x="332.8" y="1653.2" type="curve" smooth="yes"/>
      <point x="332.8" y="1695.2"/>
      <point x="300.4" y="1716.8"/>
      <point x="265" y="1716.8" type="curve" smooth="yes"/>
      <point x="234.4" y="1716.8"/>
      <point x="196.6" y="1697"/>
      <point x="196.6" y="1661" type="curve"/>
      <point x="197.8" y="1661" type="line"/>
      <point x="197.8" y="1745"/>
      <point x="295.6" y="1818.8"/>
      <point x="401.2" y="1818.8" type="curve" smooth="yes"/>
      <point x="496" y="1818.8"/>
      <point x="550" y="1742"/>
      <point x="550" y="1623.2" type="curve" smooth="yes"/>
      <point x="550" y="1516.4"/>
      <point x="540.4" y="1401.8"/>
      <point x="349.6" y="1401.8" type="curve"/>
    </contour>
  </outline>
</glyph>
<glyph name="micro" format="2">
  <advance width="1158"/>
  <unicode hex="00B5"/>
  <anchor x="566" y="0" name="bottom"/>
  <anchor x="883" y="0" name="ogonek"/>
  <anchor x="526" y="920" name="top"/>
  <outline>
    <contour>
      <point x="975" y="920" type="line"/>
      <point x="654" y="920" type="line"/>
      <point x="654" y="916" type="line"/>
      <point x="794" y="916" type="line"/>
      <point x="794" y="474" type="line" smooth="yes"/>
      <point x="794" y="296"/>
      <point x="772" y="-12"/>
      <point x="486" y="-12" type="curve" smooth="yes"/>
      <point x="374" y="-12"/>
      <point x="364" y="136"/>
      <point x="364" y="304" type="curve" smooth="yes"/>
      <point x="364" y="920" type="line"/>
      <point x="64" y="920" type="line"/>
      <point x="64" y="916" type="line"/>
      <point x="185" y="916" type="line"/>
      <point x="185" y="-242" type="line" smooth="yes"/>
      <point x="185" y="-422"/>
      <point x="324" y="-520"/>
      <point x="465" y="-520" type="curve" smooth="yes"/>
      <point x="581" y="-520"/>
      <point x="632" y="-458"/>
      <point x="632" y="-380" type="curve" smooth="yes"/>
      <point x="632" y="-304"/>
      <point x="575" y="-246"/>
      <point x="509" y="-246" type="curve" smooth="yes"/>
      <point x="443" y="-246"/>
      <point x="386" y="-306"/>
      <point x="386" y="-372" type="curve" smooth="yes"/>
      <point x="386" y="-431"/>
      <point x="414" y="-502"/>
      <point x="456" y="-516" type="curve"/>
      <point x="317" y="-509"/>
      <point x="189" y="-413"/>
      <point x="189" y="-242" type="curve" smooth="yes"/>
      <point x="189" y="206" type="line"/>
      <point x="205" y="72"/>
      <point x="271" y="-20"/>
      <point x="469" y="-20" type="curve" smooth="yes"/>
      <point x="716" y="-20"/>
      <point x="778" y="172"/>
      <point x="794" y="346" type="curve"/>
      <point x="794" y="0" type="line"/>
      <point x="1095" y="0" type="line"/>
      <point x="1095" y="4" type="line"/>
      <point x="975" y="4" type="line"/>
    </contour>
  </outline>
</glyph>
<glyph name="threequarters" format="2">
  <advance width="1401"/>
  <unicode hex="00BE"/>
  <outline>
    <contour>
      <point x="200" y="-200" type="line"/>
      <point x="204" y="-200" type="line"/>
      <point x="1172" y="1300" type="line"/>
      <point x="1168" y="1300" type="line"/>
    </contour>
    <contour>
      <point x="287.2" y="696" type="curve" smooth="yes"/>
      <point x="456.4" y="696"/>
      <point x="587.2" y="792"/>
      <point x="587.2" y="948" type="curve" smooth="yes"/>
      <point x="587.2" y="1080.6"/>
      <point x="518.8" y="1195.2"/>
      <point x="229.6" y="1195.2" type="curve"/>
      <point x="229.6" y="1193.4" type="line"/>
      <point x="432.4" y="1193.4"/>
      <point x="466" y="1054.8"/>
      <point x="466" y="948" type="curve" smooth="yes"/>
      <point x="466" y="817.2"/>
      <point x="406" y="704.4"/>
      <point x="263.2" y="704.4" type="curve" smooth="yes"/>
      <point x="117.4" y="704.4"/>
      <point x="42.4" y="782.4"/>
      <point x="42.4" y="868.8" type="curve"/>
      <point x="41.2" y="868.8" type="line"/>
      <point x="41.2" y="838.8"/>
      <point x="73.6" y="816"/>
      <point x="108.4" y="816" type="curve" smooth="yes"/>
      <point x="143.8" y="816"/>
      <point x="176.2" y="840.6"/>
      <point x="176.2" y="879" type="curve" smooth="yes"/>
      <point x="176.2" y="922.2"/>
      <point x="148.6" y="945.6"/>
      <point x="112" y="945.6" type="curve" smooth="yes"/>
      <point x="70" y="945.6"/>
      <point x="40" y="918"/>
      <point x="40" y="868.8" type="curve" smooth="yes"/>
      <point x="40" y="781.8"/>
      <point x="116.8" y="696"/>
    </contour>
    <contour>
      <point x="1002" y="-206" type="line"/>
      <point x="1320" y="-206" type="line"/>
      <point x="1320" y="-203.6" type="line"/>
      <point x="1230" y="-203.6" type="line"/>
      <point x="1230" y="694" type="line"/>
      <point x="1134" y="694" type="line"/>
      <point x="702" y="50.8" type="line"/>
      <point x="1362" y="50.8" type="line"/>
      <point x="1362" y="53.2" type="line"/>
      <point x="706.8" y="53.2" type="line"/>
      <point x="1116" y="662.8" type="line"/>
      <point x="1116" y="-203.6" type="line"/>
      <point x="1002" y="-203.6" type="line"/>
    </contour>
    <contour>
      <point x="229.6" y="1194" type="line"/>
      <point x="506.8" y="1194"/>
      <point x="551.2" y="1297.2"/>
      <point x="551.2" y="1417.2" type="curve" smooth="yes"/>
      <point x="551.2" y="1549.8"/>
      <point x="433" y="1618.8"/>
      <point x="299.2" y="1618.8" type="curve" smooth="yes"/>
      <point x="176.8" y="1618.8"/>
      <point x="75.4" y="1542"/>
      <point x="75.4" y="1455" type="curve" smooth="yes"/>
      <point x="75.4" y="1405.8"/>
      <point x="108.4" y="1380.6"/>
      <point x="145" y="1380.6" type="curve" smooth="yes"/>
      <point x="175" y="1380.6"/>
      <point x="212.8" y="1399.2"/>
      <point x="212.8" y="1447.2" type="curve" smooth="yes"/>
      <point x="212.8" y="1489.2"/>
      <point x="180.4" y="1510.8"/>
      <point x="145" y="1510.8" type="curve" smooth="yes"/>
      <point x="114.4" y="1510.8"/>
      <point x="76.6" y="1491"/>
      <point x="76.6" y="1455" type="curve"/>
      <point x="77.8" y="1455" type="line"/>
      <point x="77.8" y="1539"/>
      <point x="175.6" y="1612.8"/>
      <point x="281.2" y="1612.8" type="curve" smooth="yes"/>
      <point x="376" y="1612.8"/>
      <point x="430" y="1536"/>
      <point x="430" y="1417.2" type="curve" smooth="yes"/>
      <point x="430" y="1310.4"/>
      <point x="420.4" y="1195.8"/>
      <point x="229.6" y="1195.8" type="curve"/>
    </contour>
  </outline>
</glyph>
<glyph name="Eth" format="2">
  <advance width="1399"/>
  <unicode hex="00D0"/>
  <anchor x="583" y="0" name="bottom"/>
  <anchor x="583" y="0" name="cedilla"/>
  <anchor x="584" y="1500" name="top"/>
  <outline>
    <contour>
      <point x="86" y="748" type="line"/>
      <point x="670" y="748" type="line"/>
      <point x="670" y="752" type="line"/>
      <point x="86" y="752" type="line"/>
    </contour>
    <component base="D"/>
  </outline>
</glyph>
<glyph name="ae" format="2">
  <advance width="1624"/>
  <unicode hex="00E6"/>
  <outline>
    <contour>
      <point x="422" y="-20" type="curve" smooth="yes"/>
      <point x="616" y="-20"/>
      <point x="730" y="80"/>
      <point x="757" y="269" type="curve"/>
      <point x="741" y="266" type="line"/>
      <point x="795" y="85"/>
      <point x="931" y="-20"/>
      <point x="1131" y="-20" type="curve" smooth="yes"/>
      <point x="1353" y="-20"/>
      <point x="1489" y="112"/>
      <point x="1541" y="286" type="curve"/>
      <point x="1537" y="286" type="line"/>
      <point x="1487" y="120"/>
      <point x="1352" y="-14"/>
      <point x="1144" y="-14" type="curve" smooth="yes"/>
      <point x="926" y="-14"/>
      <point x="875" y="232"/>
      <point x="875" y="460" type="curve" smooth="yes"/>
      <point x="875" y="480"/>
      <point x="875" y="500"/>
      <point x="876" y="520" type="curve"/>
      <point x="1539" y="520" type="line"/>
      <point x="1539" y="738"/>
      <point x="1423" y="940"/>
      <point x="1125" y="940" type="curve" smooth="yes"/>
      <point x="954" y="940"/>
      <point x="832" y="864"/>
      <point x="768" y="728" type="curve"/>
      <point x="787" y="729" type="line"/>
      <point x="770" y="843"/>
      <point x="712" y="936"/>
      <point x="517" y="936" type="curve" smooth="yes"/>
      <point x="335" y="936"/>
      <point x="162" y="856"/>
      <point x="162" y="732" type="curve" smooth="yes"/>
      <point x="162" y="660"/>
      <point x="204" y="622"/>
      <point x="265" y="622" type="curve" smooth="yes"/>
      <point x="315" y="622"/>
      <point x="383" y="656"/>
      <point x="383" y="736" type="curve" smooth="yes"/>
      <point x="383" y="798"/>
      <point x="330" y="842"/>
      <point x="275" y="842" type="curve" smooth="yes"/>
      <point x="242" y="842"/>
      <point x="203" y="825"/>
      <point x="181" y="792" type="curve"/>
      <point x="224" y="876"/>
      <point x="356" y="926"/>
      <point x="477" y="926" type="curve" smooth="yes"/>
      <point x="637" y="926"/>
      <point x="653" y="743"/>
      <point x="653" y="609" type="curve" smooth="yes"/>
      <point x="653" y="504" type="line"/>
      <point x="529" y="504" type="line" smooth="yes"/>
      <point x="245" y="504"/>
      <point x="92" y="395"/>
      <point x="92" y="227" type="curve" smooth="yes"/>
      <point x="92" y="39"/>
      <point x="264" y="-20"/>
    </contour>
    <contour>
      <point x="461" y="-11" type="curve" smooth="yes"/>
      <point x="365" y="-11"/>
      <point x="295" y="72"/>
      <point x="295" y="236" type="curve" smooth="yes"/>
      <point x="295" y="375"/>
      <point x="377" y="500"/>
      <point x="529" y="500" type="curve" smooth="yes"/>
      <point x="653" y="500" type="line"/>
      <point x="653" y="361" type="line" smooth="yes"/>
      <point x="653" y="159"/>
      <point x="581" y="-11"/>
    </contour>
    <contour>
      <point x="876" y="524" type="line"/>
      <point x="886" y="732"/>
      <point x="945" y="936"/>
      <point x="1125" y="936" type="curve" smooth="yes"/>
      <point x="1303" y="936"/>
      <point x="1329" y="680"/>
      <point x="1327" y="524" type="curve"/>
    </contour>
  </outline>
</glyph>
<glyph name="hbar" format="2">
  <advance width="1158"/>
  <unicode hex="0127"/>
  <outline>
    <contour>
      <point x="56.002" y="1188" type="line"/>
      <point x="640.008" y="1188" type="line"/>
      <point x="640.008" y="1192" type="line"/>
      <point x="56.002" y="1192" type="line"/>
    </contour>
    <component base="h"/>
  </outline>
</glyph>
<glyph name="tbar" format="2">
  <advance width="678"/>
  <unicode hex="0167"/>
  <outline>
    <contour>
      <point x="40.533" y="608" type="line"/>
      <point x="586.663" y="608" type="line"/>
      <point x="586.663" y="612" type="line"/>
      <point x="40.533" y="612" type="line"/>
    </contour>
    <component base="t"/>
  </outline>
</glyph>
<glyph name="longs" format="2">
  <advance width="769"/>
  <unicode hex="017F"/>
  <anchor x="329" y="0" name="bottom"/>
  <anchor x="619" y="1497" name="top"/>
  <outline>
    <contour>
      <point x="609" y="1520" type="curve" smooth="yes"/>
      <point x="349" y="1520"/>
      <point x="215" y="1285"/>
      <point x="215" y="1023" type="curve" smooth="yes"/>
      <point x="215" y="4" type="line"/>
      <point x="55" y="4" type="line"/>
      <point x="55" y="0" type="line"/>
      <point x="615" y="0" type="line"/>
      <point x="615" y="4" type="line"/>
      <point x="395" y="4" type="line"/>
      <point x="395" y="1080" type="line" smooth="yes"/>
      <point x="395" y="1334"/>
      <point x="449" y="1516"/>
      <point x="609" y="1516" type="curve" smooth="yes"/>
      <point x="746" y="1516"/>
      <point x="835" y="1439"/>
      <point x="849" y="1348" type="curve"/>
      <point x="835" y="1392"/>
      <point x="786" y="1418"/>
      <point x="740" y="1418" type="curve" smooth="yes"/>
      <point x="690" y="1418"/>
      <point x="629" y="1377"/>
      <point x="629" y="1307" type="curve" smooth="yes"/>
      <point x="629" y="1227"/>
      <point x="690" y="1198"/>
      <point x="740" y="1198" type="curve" smooth="yes"/>
      <point x="801" y="1198"/>
      <point x="855" y="1240"/>
      <point x="855" y="1322" type="curve" smooth="yes"/>
      <point x="855" y="1416"/>
      <point x="771" y="1520"/>
    </contour>
  </outline>
</glyph>
<glyph name="gravecomb" format="2">
  <unicode hex="0300"/>
  <anchor x="582" y="1500" name="_top"/>
  <outline>
    <contour>
      <point x="654" y="1693" type="line"/>
      <point x="656" y="1696" type="line"/>
      <point x="465" y="1926" type="line" smooth="yes"/>
      <point x="428" y="1971"/>
      <point x="372" y="1948"/>
      <point x="353" y="1915" type="curve" smooth="yes"/>
      <point x="334" y="1882"/>
      <point x="346" y="1832"/>
      <point x="380" y="1817" type="curve" smooth="yes"/>
    </contour>
  </outline>
</glyph>
<glyph name="tildecomb" format="2">
  <unicode hex="0303"/>
  <anchor x="496" y="1500" name="_top"/>
  <outline>
    <contour>
      <point x="670" y="1680" type="curve" smooth="yes"/>
      <point x="788" y="1680"/>
      <point x="848" y="1744"/>
      <point x="848" y="1934" type="curve"/>
      <point x="844" y="1934" type="line"/>
      <point x="844" y="1830"/>
      <point x="788" y="1796"/>
      <point x="702" y="1796" type="curve" smooth="yes"/>
      <point x="590" y="1796"/>
      <point x="490" y="1954"/>
      <point x="350" y="1954" type="curve" smooth="yes"/>
      <point x="252" y="1954"/>
      <point x="152" y="1870"/>
      <point x="152" y="1700" type="curve"/>
      <point x="156" y="1700" type="line"/>
      <point x="156" y="1804"/>
      <point x="232" y="1838"/>
      <point x="298" y="1838" type="curve" smooth="yes"/>
      <point x="424" y="1838"/>
      <point x="536" y="1680"/>
    </contour>
  </outline>
</glyph>
<glyph name="dieresiscomb" format="2">
  <unicode hex="0308"/>
  <anchor x="501" y="1500" name="_top"/>
  <outline>
    <contour>
      <point x="660" y="1690" type="curve" smooth="yes"/>
      <point x="713" y="1690"/>
      <point x="756" y="1733"/>
      <point x="756" y="1786" type="curve" smooth="yes"/>
      <point x="756" y="1839"/>
      <point x="713" y="1883"/>
      <point x="660" y="1883" type="curve" smooth="yes"/>
      <point x="607" y="1883"/>
      <point x="564" y="1839"/>
      <point x="564" y="1786" type="curve" smooth="yes"/>
      <point x="564" y="1733"/>
      <point x="607" y="1690"/>
    </contour>
    <contour>
      <point x="340" y="1690" type="curve" smooth="yes"/>
      <point x="393" y="1690"/>
      <point x="436" y="1733"/>
      <point x="436" y="1786" type="curve" smooth="yes"/>
      <point x="436" y="1839"/>
      <point x="393" y="1883"/>
      <point x="340" y="1883" type="curve" smooth="yes"/>
      <point x="287" y="1883"/>
      <point x="244" y="1839"/>
      <point x="244" y="1786" type="curve" smooth="yes"/>
      <point x="244" y="1733"/>
      <point x="287" y="1690"/>
    </contour>
  </outline>
</glyph>
<glyph name="ringcomb" format="2">
  <unicode hex="030A"/>
  <anchor x="500" y="1500" name="_top"/>
  <outline>
    <contour>
      <point x="500" y="1680" type="curve" smooth="yes"/>
      <point x="602" y="1680"/>
      <point x="680" y="1758"/>
      <point x="680" y="1860" type="curve" smooth="yes"/>
      <point x="680" y="1962"/>
      <point x="602" y="2040"/>
      <point x="500" y="2040" type="curve" smooth="yes"/>
      <point x="398" y="2040"/>
      <point x="320" y="1962"/>
      <point x="320" y="1860" type="curve" smooth="yes"/>
      <point x="320" y="1758"/>
      <point x="398" y="1680"/>
    </contour>
    <contour>
      <point x="500" y="1684" type="curve" smooth="yes"/>
      <point x="406" y="1684"/>
      <point x="390" y="1776"/>
      <point x="390" y="1860" type="curve" smooth="yes"/>
      <point x="390" y="1944"/>
      <point x="406" y="2036"/>
      <point x="500" y="2036" type="curve" smooth="yes"/>
      <point x="594" y="2036"/>
      <point x="610" y="1944"/>
      <point x="610" y="1860" type="curve" smooth="yes"/>
      <point x="610" y="1776"/>
      <point x="594" y="1684"/>
    </contour>
  </outline>
</glyph>
<glyph name="commaturnedabovecomb" format="2">
  <unicode hex="0312"/>
  <anchor x="497" y="920" name="_top"/>
  <outline>
    <contour>
      <point x="501" y="1100" type="curve" smooth="yes"/>
      <point x="562" y="1100"/>
      <point x="608" y="1142"/>
      <point x="608" y="1195" type="curve" smooth="yes"/>
      <point x="608" y="1247"/>
      <point x="576" y="1289"/>
      <point x="507" y="1289" type="curve" smooth="yes"/>
      <point x="440" y="1289"/>
      <point x="394" y="1230"/>
      <point x="402" y="1182" type="curve"/>
      <point x="404" y="1182" type="line"/>
      <point x="362" y="1327"/>
      <point x="446" y="1505"/>
      <point x="611" y="1505" type="curve"/>
      <point x="611" y="1508" type="line"/>
      <point x="467" y="1508"/>
      <point x="389" y="1379"/>
      <point x="389" y="1259" type="curve" smooth="yes"/>
      <point x="389" y="1158"/>
      <point x="438" y="1100"/>
    </contour>
  </outline>
</glyph>
<glyph name="commaaccentcomb" format="2">
  <unicode hex="0326"/>
  <anchor x="496" y="0" name="_bottom"/>
  <outline>
    <contour>
      <point x="389" y="-608" type="line"/>
      <point x="533" y="-608"/>
      <point x="611" y="-479"/>
      <point x="611" y="-359" type="curve" smooth="yes"/>
      <point x="611" y="-258"/>
      <point x="562" y="-200"/>
      <point x="499" y="-200" type="curve" smooth="yes"/>
      <point x="438" y="-200"/>
      <point x="392" y="-242"/>
      <point x="392" y="-295" type="curve" smooth="yes"/>
      <point x="392" y="-347"/>
      <point x="424" y="-389"/>
      <point x="493" y="-389" type="curve" smooth="yes"/>
      <point x="560" y="-389"/>
      <point x="606" y="-330"/>
      <point x="598" y="-282" type="curve"/>
      <point x="596" y="-282" type="line"/>
      <point x="638" y="-427"/>
      <point x="554" y="-605"/>
      <point x="389" y="-605" type="curve"/>
    </contour>
  </outline>
</glyph>
<glyph name="ogonekcomb" format="2">
  <unicode hex="0328"/>
  <anchor x="510" y="47" name="_ogonek"/>
  <outline>
    <contour>
      <point x="493" y="-372" type="curve" smooth="yes"/>
      <point x="635" y="-372"/>
      <point x="693" y="-282"/>
      <point x="723" y="-226" type="curve"/>
      <point x="721" y="-224" type="line"/>
      <point x="683" y="-286"/>
      <point x="649" y="-336"/>
      <point x="577" y="-336" type="curve" smooth="yes"/>
      <point x="509" y="-336"/>
      <point x="463" y="-264"/>
      <point x="463" y="-170" type="curve" smooth="yes"/>
      <point x="463" y="-44"/>
      <point x="497" y="48"/>
      <point x="559" y="82" type="curve"/>
      <point x="555" y="86" type="line"/>
      <point x="433" y="46"/>
      <point x="277" y="-40"/>
      <point x="277" y="-200" type="curve" smooth="yes"/>
      <point x="277" y="-320"/>
      <point x="391" y="-372"/>
    </contour>
  </outline>
</glyph>
<glyph name="figuredash" format="2">
  <advance width="934"/>
  <unicode hex="2012"/>
  <outline>
    <contour>
      <point x="119.713" y="548" type="line"/>
      <point x="814.566" y="548" type="line"/>
      <point x="814.566" y="552" type="line"/>
      <point x="119.713" y="552" type="line"/>
    </contour>
  </outline>
</glyph>
<glyph name="minus" format="2">
  <advance width="934"/>
  <unicode hex="2212"/>
  <outline>
    <contour>
      <point x="120" y="768" type="line"/>
      <point x="815" y="768" type="line"/>
      <point x="815" y="772" type="line"/>
      <point x="120" y="772" type="line"/>
    </contour>
  </outline>
</glyph>
<glyph name="uniF8E8" format="2">
  <advance width="1119"/>
  <unicode hex="F8E8"/>
  <anchor x="581.36" y="857.6" name="bottom"/>
  <anchor x="448.88" y="857.6" name="cedilla"/>
  <anchor x="552.56" y="1397.6" name="top"/>
  <outline>
    <contour>
      <point x="560" y="668" type="curve" smooth="yes"/>
      <point x="815.6" y="668"/>
      <point x="1022" y="874.4"/>
      <point x="1022" y="1130" type="curve" smooth="yes"/>
      <point x="1022" y="1385.6"/>
      <point x="815.6" y="1592"/>
      <point x="560" y="1592" type="curve" smooth="yes"/>
      <point x="304.4" y="1592"/>
      <point x="98" y="1385.6"/>
      <point x="98" y="1130" type="curve" smooth="yes"/>
      <point x="98" y="874.4"/>
      <point x="304.4" y="668"/>
    </contour>
    <contour>
      <point x="336.8" y="857.6" type="line"/>
      <point x="563.6" y="857.6" type="line"/>
      <point x="563.6" y="858.8" type="line"/>
      <point x="336.8" y="858.8" type="line"/>
    </contour>
    <contour>
      <point x="416" y="857.6" type="line"/>
      <point x="484.4" y="857.6" type="line"/>
      <point x="484.4" y="1397.6" type="line"/>
      <point x="416" y="1397.6" type="line"/>
    </contour>
    <contour>
      <point x="750.8" y="854" type="curve" smooth="yes"/>
      <point x="782.6" y="854"/>
      <point x="804.2" y="858.8"/>
      <point x="815.6" y="865.4" type="curve"/>
      <point x="815" y="866" type="line"/>
      <point x="804.8" y="861.2"/>
      <point x="791" y="857.6"/>
      <point x="776" y="857.6" type="curve" smooth="yes"/>
      <point x="687.2" y="857.6"/>
      <point x="832.4" y="1135.4"/>
      <point x="585.2" y="1135.4" type="curve" smooth="yes"/>
      <point x="466.4" y="1135.4" type="line"/>
      <point x="466.4" y="1134.2" type="line"/>
      <point x="570.8" y="1134.2" type="line" smooth="yes"/>
      <point x="747.8" y="1134.2"/>
      <point x="583.4" y="854"/>
    </contour>
    <contour>
      <point x="560" y="670.4" type="curve" smooth="yes"/>
      <point x="306.8" y="670.4"/>
      <point x="100.4" y="876.8"/>
      <point x="100.4" y="1130" type="curve" smooth="yes"/>
      <point x="100.4" y="1383.2"/>
      <point x="306.8" y="1589.6"/>
      <point x="560" y="1589.6" type="curve" smooth="yes"/>
      <point x="813.2" y="1589.6"/>
      <point x="1019.6" y="1383.2"/>
      <point x="1019.6" y="1130" type="curve" smooth="yes"/>
      <point x="1019.6" y="876.8"/>
      <point x="813.2" y="670.4"/>
    </contour>
    <contour>
      <point x="466.4" y="1134.2" type="line"/>
      <point x="574.4" y="1134.2" type="line" smooth="yes"/>
      <point x="690.2" y="1134.2"/>
      <point x="754.4" y="1170.8"/>
      <point x="754.4" y="1264.4" type="curve" smooth="yes"/>
      <point x="754.4" y="1358"/>
      <point x="683" y="1397.6"/>
      <point x="574.4" y="1397.6" type="curve" smooth="yes"/>
      <point x="336.8" y="1397.6" type="line"/>
      <point x="336.8" y="1396.4" type="line"/>
      <point x="574.4" y="1396.4" type="line" smooth="yes"/>
      <point x="643.4" y="1396.4"/>
      <point x="682.4" y="1343"/>
      <point x="682.4" y="1264.4" type="curve" smooth="yes"/>
      <point x="682.4" y="1185.8"/>
      <point x="643.4" y="1135.4"/>
      <point x="574.4" y="1135.4" type="curve" smooth="yes"/>
      <point x="466.4" y="1135.4" type="line"/>
    </contour>
  </outline>
</glyph>
<glyph name="R.alt" format="2">
  <advance width="1346"/>
  <anchor x="716" y="0" name="bottom"/>
  <anchor x="348" y="0" name="cedilla"/>
  <anchor x="636" y="1500" name="top"/>
  <outline>
    <contour>
      <point x="397" y="768" type="line"/>
      <point x="697" y="768" type="line" smooth="yes"/>
      <point x="1019" y="768"/>
      <point x="1197" y="870"/>
      <point x="1197" y="1130" type="curve" smooth="yes"/>
      <point x="1197" y="1390"/>
      <point x="999" y="1500"/>
      <point x="697" y="1500" type="curve" smooth="yes"/>
      <point x="37" y="1500" type="line"/>
      <point x="37" y="1496" type="line"/>
      <point x="697" y="1496" type="line" smooth="yes"/>
      <point x="889" y="1496"/>
      <point x="997" y="1348"/>
      <point x="997" y="1130" type="curve" smooth="yes"/>
      <point x="997" y="912"/>
      <point x="889" y="772"/>
      <point x="697" y="772" type="curve" smooth="yes"/>
      <point x="397" y="772" type="line"/>
    </contour>
    <contour>
      <point x="37" y="0" type="line"/>
      <point x="667" y="0" type="line"/>
      <point x="667" y="4" type="line"/>
      <point x="37" y="4" type="line"/>
    </contour>
    <contour>
      <point x="256" y="0" type="line"/>
      <point x="447" y="0" type="line"/>
      <point x="447" y="1500" type="line"/>
      <point x="256" y="1500" type="line"/>
    </contour>
    <contour>
      <point x="1187" y="0" type="curve" smooth="yes"/>
      <point x="1259" y="0"/>
      <point x="1295" y="0"/>
      <point x="1327" y="0" type="curve"/>
      <point x="1327" y="4" type="line"/>
      <point x="1299" y="4"/>
      <point x="1298" y="4"/>
      <point x="1256" y="4" type="curve" smooth="yes"/>
      <point x="1030" y="4"/>
      <point x="1413" y="772"/>
      <point x="727" y="772" type="curve" smooth="yes"/>
      <point x="397" y="772" type="line"/>
      <point x="397" y="768" type="line"/>
      <point x="687" y="768" type="line" smooth="yes"/>
      <point x="1159" y="768"/>
      <point x="721" y="0"/>
    </contour>
  </outline>
</glyph>
<glyph name="c.sc" format="2">
  <advance width="1138"/>
  <anchor x="639" y="-6" name="bottom"/>
  <anchor x="629" y="1020" name="top"/>
  <outline>
    <contour>
      <point x="619" y="-20" type="curve" smooth="yes"/>
      <point x="725" y="-20"/>
      <point x="832" y="40"/>
      <point x="908" y="122" type="curve"/>
      <point x="1009" y="0" type="line"/>
      <point x="1013" y="0" type="line"/>
      <point x="1013" y="330" type="line"/>
      <point x="1009" y="330" type="line"/>
      <point x="988" y="166"/>
      <point x="806" y="-4"/>
      <point x="649" y="-4" type="curve" smooth="yes"/>
      <point x="461" y="-4"/>
      <point x="329" y="197"/>
      <point x="329" y="510" type="curve" smooth="yes"/>
      <point x="329" y="823"/>
      <point x="451" y="1030"/>
      <point x="639" y="1030" type="curve" smooth="yes"/>
      <point x="817" y="1030"/>
      <point x="979" y="835"/>
      <point x="999" y="690" type="curve"/>
      <point x="1003" y="690" type="line"/>
      <point x="1003" y="1020" type="line"/>
      <point x="999" y="1020" type="line"/>
      <point x="889" y="910" type="line"/>
      <point x="819" y="984"/>
      <point x="722" y="1040"/>
      <point x="609" y="1040" type="curve" smooth="yes"/>
      <point x="393" y="1040"/>
      <point x="100" y="905"/>
      <point x="100" y="510" type="curve" smooth="yes"/>
      <point x="100" y="115"/>
      <point x="383" y="-20"/>
    </contour>
  </outline>
</glyph>
<glyph name="f_f_l" format="2">
  <advance width="1797"/>
  <outline>
    <contour>
      <point x="55" y="0" type="line"/>
      <point x="1734" y="0" type="line"/>
      <point x="1734" y="4" type="line"/>
      <point x="995" y="4" type="line"/>
      <point x="995" y="916" type="line"/>
      <point x="1275" y="916" type="line"/>
      <point x="1275" y="920" type="line"/>
      <point x="995" y="920" type="line"/>
      <point x="995" y="1080" type="line" smooth="yes"/>
      <point x="995" y="1334"/>
      <point x="1059" y="1516"/>
      <point x="1219" y="1516" type="curve" smooth="yes"/>
      <point x="1352" y="1516"/>
      <point x="1448" y="1435"/>
      <point x="1467" y="1353" type="curve"/>
      <point x="1451" y="1394"/>
      <point x="1404" y="1418"/>
      <point x="1360" y="1418" type="curve" smooth="yes"/>
      <point x="1310" y="1418"/>
      <point x="1249" y="1377"/>
      <point x="1249" y="1307" type="curve" smooth="yes"/>
      <point x="1249" y="1227"/>
      <point x="1310" y="1198"/>
      <point x="1360" y="1198" type="curve" smooth="yes"/>
      <point x="1421" y="1198"/>
      <point x="1475" y="1240"/>
      <point x="1475" y="1322" type="curve" smooth="yes"/>
      <point x="1475" y="1416"/>
      <point x="1370" y="1520"/>
      <point x="1219" y="1520" type="curve" smooth="yes"/>
      <point x="959" y="1520"/>
      <point x="815" y="1285"/>
      <point x="815" y="1023" type="curve" smooth="yes"/>
      <point x="815" y="920" type="line"/>
      <point x="55" y="920" type="line"/>
      <point x="55" y="916" type="line"/>
      <point x="815" y="916" type="line"/>
      <point x="815" y="4" type="line"/>
      <point x="55" y="4" type="line"/>
    </contour>
    <contour>
      <point x="215" y="2" type="line"/>
      <point x="395" y="2" type="line"/>
      <point x="395" y="980" type="line" smooth="yes"/>
      <point x="395" y="1234"/>
      <point x="474" y="1416"/>
      <point x="654" y="1416" type="curve" smooth="yes"/>
      <point x="815" y="1416"/>
      <point x="916" y="1328"/>
      <point x="937" y="1244" type="curve"/>
      <point x="921" y="1284"/>
      <point x="874" y="1308"/>
      <point x="830" y="1308" type="curve" smooth="yes"/>
      <point x="780" y="1308"/>
      <point x="719" y="1267"/>
      <point x="719" y="1197" type="curve" smooth="yes"/>
      <point x="719" y="1117"/>
      <point x="780" y="1088"/>
      <point x="830" y="1088" type="curve" smooth="yes"/>
      <point x="891" y="1088"/>
      <point x="945" y="1130"/>
      <point x="945" y="1212" type="curve" smooth="yes"/>
      <point x="945" y="1306"/>
      <point x="836" y="1420"/>
      <point x="654" y="1420" type="curve" smooth="yes"/>
      <point x="374" y="1420"/>
      <point x="215" y="1185"/>
      <point x="215" y="923" type="curve" smooth="yes"/>
    </contour>
    <contour>
      <point x="1395" y="2" type="line"/>
      <point x="1575" y="2" type="line"/>
      <point x="1575" y="1540" type="line"/>
      <point x="1395" y="1460" type="line"/>
    </contour>
  </outline>
</glyph>
<glyph name="five.tosf" format="2">
  <advance width="1160"/>
  <outline>
    <contour>
      <point x="512" y="-525.018" type="curve" smooth="yes"/>
      <point x="814" y="-525.018"/>
      <point x="1019" y="-315.822"/>
      <point x="1019" y="-68.591" type="curve" smooth="yes"/>
      <point x="1019" y="216.676"/>
      <point x="846" y="386.886"/>
      <point x="584" y="386.886" type="curve" smooth="yes"/>
      <point x="382" y="386.886"/>
      <point x="248" y="281.337"/>
      <point x="216" y="210.971" type="curve"/>
      <point x="220" y="210.971" type="line"/>
      <point x="253" y="273.73"/>
      <point x="367" y="365.966"/>
      <point x="510" y="365.966" type="curve" smooth="yes"/>
      <point x="688" y="365.966"/>
      <point x="810" y="187.199"/>
      <point x="810" y="-68.591" type="curve" smooth="yes"/>
      <point x="810" y="-275.885"/>
      <point x="770" y="-521.214"/>
      <point x="512" y="-521.214" type="curve" smooth="yes"/>
      <point x="313" y="-521.214"/>
      <point x="147" y="-396.648"/>
      <point x="147" y="-260.67" type="curve"/>
      <point x="143" y="-260.67" type="line"/>
      <point x="143" y="-317.724"/>
      <point x="202" y="-353.858"/>
      <point x="254" y="-353.858" type="curve" smooth="yes"/>
      <point x="313" y="-353.858"/>
      <point x="368" y="-315.822"/>
      <point x="368" y="-249.26" type="curve" smooth="yes"/>
      <point x="368" y="-173.188"/>
      <point x="304" y="-142.76"/>
      <point x="254" y="-142.76" type="curve" smooth="yes"/>
      <point x="193" y="-142.76"/>
      <point x="141" y="-182.697"/>
      <point x="141" y="-260.67" type="curve" smooth="yes"/>
      <point x="141" y="-398.549"/>
      <point x="308" y="-525.018"/>
    </contour>
    <contour>
      <point x="214" y="210.971" type="line"/>
      <point x="218" y="210.971" type="line"/>
      <point x="218" y="749.175" type="line"/>
      <point x="950" y="749.175" type="line"/>
      <point x="950" y="1023.982" type="line"/>
      <point x="946" y="1023.982" type="line"/>
      <point x="946" y="920.335" type="line"/>
      <point x="214" y="920.335" type="line"/>
    </contour>
  </outline>
</glyph>
<glyph name="g.sc" format="2">
  <advance width="1215"/>
  <anchor x="630" y="0" name="bottom"/>
  <anchor x="629" y="0" name="cedilla"/>
  <anchor x="619" y="1020" name="top"/>
  <outline>
    <contour>
      <point x="630" y="-20" type="curve" smooth="yes"/>
      <point x="866" y="-20"/>
      <point x="988" y="134"/>
      <point x="1049" y="260" type="curve"/>
      <point x="1049" y="430" type="line"/>
      <point x="840" y="430" type="line"/>
      <point x="840" y="180" type="line"/>
      <point x="820" y="116"/>
      <point x="778" y="-16"/>
      <point x="640" y="-16" type="curve" smooth="yes"/>
      <point x="473" y="-16"/>
      <point x="339" y="197"/>
      <point x="339" y="510" type="curve" smooth="yes"/>
      <point x="339" y="823"/>
      <point x="461" y="1029"/>
      <point x="649" y="1029" type="curve" smooth="yes"/>
      <point x="828" y="1029"/>
      <point x="989" y="835"/>
      <point x="1009" y="690" type="curve"/>
      <point x="1013" y="690" type="line"/>
      <point x="995" y="836"/>
      <point x="835" y="1040"/>
      <point x="619" y="1040" type="curve" smooth="yes"/>
      <point x="403" y="1040"/>
      <point x="110" y="905"/>
      <point x="110" y="510" type="curve" smooth="yes"/>
      <point x="110" y="115"/>
      <point x="394" y="-20"/>
    </contour>
    <contour>
      <point x="649" y="428" type="line"/>
      <point x="1150" y="428" type="line"/>
      <point x="1150" y="432" type="line"/>
      <point x="649" y="432" type="line"/>
    </contour>
    <contour>
      <point x="1013" y="690" type="curve"/>
      <point x="1013" y="1020" type="line"/>
      <point x="1009" y="1020" type="line"/>
      <point x="879" y="930" type="line"/>
      <point x="952" y="859"/>
      <point x="989" y="786"/>
    </contour>
  </outline>
</glyph>
<glyph name="n.sc" format="2">
  <advance width="1220"/>
  <anchor x="603" y="0" name="bottom"/>
  <anchor x="683" y="1020" name="top"/>
  <outline>
    <contour>
      <point x="956" y="-20" type="line"/>
      <point x="987" y="-20" type="line"/>
      <point x="987" y="1020" type="line"/>
      <point x="983" y="1020" type="line"/>
      <point x="983" y="314" type="line"/>
      <point x="477" y="1020" type="line"/>
      <point x="247" y="1020" type="line"/>
    </contour>
    <contour>
      <point x="85" y="0" type="line"/>
      <point x="453" y="0" type="line"/>
      <point x="453" y="4" type="line"/>
      <point x="85" y="4" type="line"/>
    </contour>
    <contour>
      <point x="246" y="0" type="line"/>
      <point x="250" y="0" type="line"/>
      <point x="250" y="1020" type="line"/>
      <point x="85" y="1020" type="line"/>
      <point x="85" y="1016" type="line"/>
      <point x="246" y="1016" type="line"/>
    </contour>
    <contour>
      <point x="812" y="1016" type="line"/>
      <point x="1150" y="1016" type="line"/>
      <point x="1150" y="1020" type="line"/>
      <point x="812" y="1020" type="line"/>
    </contour>
  </outline>
</glyph>
<glyph name="oe.sc" format="2">
  <advance width="1613"/>
  <outline>
    <contour>
      <point x="620" y="1020" type="curve"/>
      <point x="620" y="1016" type="line"/>
      <point x="402" y="1016"/>
      <point x="309" y="773"/>
      <point x="309" y="510" type="curve" smooth="yes"/>
      <point x="309" y="247"/>
      <point x="382" y="4"/>
      <point x="620" y="4" type="curve"/>
      <point x="620" y="0" type="line"/>
      <point x="314" y="0"/>
      <point x="80" y="184"/>
      <point x="80" y="510" type="curve" smooth="yes"/>
      <point x="80" y="836"/>
      <point x="333" y="1020"/>
    </contour>
    <component base="e.sc" xOffset="535"/>
  </outline>
</glyph>
<glyph name="one.osf" format="2">
  <advance width="869"/>
  <outline>
    <contour>
      <point x="359" y="0" type="line"/>
      <point x="550" y="0" type="line"/>
      <point x="550" y="920" type="line"/>
      <point x="134" y="920" type="line"/>
      <point x="134" y="916" type="line"/>
      <point x="359" y="916" type="line"/>
    </contour>
    <contour>
      <point x="100" y="0" type="line"/>
      <point x="770" y="0" type="line"/>
      <point x="770" y="4" type="line"/>
      <point x="100" y="4" type="line"/>
    </contour>
  </outline>
</glyph>
<glyph name="r.sc" format="2">
  <advance width="1085"/>
  <anchor x="625" y="0" name="bottom"/>
  <anchor x="295" y="0" name="cedilla"/>
  <anchor x="545" y="1020" name="top"/>
  <outline>
    <contour>
      <point x="345" y="503" type="line"/>
      <point x="585" y="503" type="line" smooth="yes"/>
      <point x="857" y="503"/>
      <point x="975" y="581"/>
      <point x="975" y="741" type="curve" smooth="yes"/>
      <point x="975" y="901"/>
      <point x="837" y="1020"/>
      <point x="585" y="1020" type="curve" smooth="yes"/>
      <point x="85" y="1020" type="line"/>
      <point x="85" y="1016" type="line"/>
      <point x="585" y="1016" type="line" smooth="yes"/>
      <point x="726" y="1016"/>
      <point x="776" y="859"/>
      <point x="776" y="741" type="curve" smooth="yes"/>
      <point x="776" y="623"/>
      <point x="726" y="506"/>
      <point x="585" y="506" type="curve" smooth="yes"/>
      <point x="345" y="506" type="line"/>
    </contour>
    <contour>
      <point x="85" y="0" type="line"/>
      <point x="516" y="0" type="line"/>
      <point x="516" y="4" type="line"/>
      <point x="85" y="4" type="line"/>
    </contour>
    <contour>
      <point x="206" y="0" type="line"/>
      <point x="395" y="0" type="line"/>
      <point x="395" y="1020" type="line"/>
      <point x="206" y="1020" type="line"/>
    </contour>
    <contour>
      <point x="965" y="-20" type="curve" smooth="yes"/>
      <point x="1027" y="-20"/>
      <point x="1053" y="-8"/>
      <point x="1085" y="10" type="curve"/>
      <point x="1084" y="14" type="line"/>
      <point x="1054" y="-4"/>
      <point x="1031" y="-13"/>
      <point x="1001" y="-13" type="curve" smooth="yes"/>
      <point x="839" y="-13"/>
      <point x="1151" y="505"/>
      <point x="585" y="505" type="curve" smooth="yes"/>
      <point x="345" y="505" type="line"/>
      <point x="345" y="502" type="line"/>
      <point x="545" y="502" type="line" smooth="yes"/>
      <point x="977" y="502"/>
      <point x="529" y="-20"/>
    </contour>
  </outline>
</glyph>
<glyph name="seven.osf" format="2">
  <advance width="1009"/>
  <outline>
    <contour>
      <point x="468" y="-519.947" type="curve" smooth="yes"/>
      <point x="556" y="-519.947"/>
      <point x="596" y="-461.21"/>
      <point x="596" y="-391.105" type="curve" smooth="yes"/>
      <point x="596" y="-285"/>
      <point x="468" y="-256.579"/>
      <point x="468" y="-118.263" type="curve" smooth="yes"/>
      <point x="468" y="-34.894"/>
      <point x="520" y="15.317"/>
      <point x="614" y="192.475" type="curve" smooth="yes"/>
      <point x="754" y="455.844"/>
      <point x="990" y="920.055"/>
      <point x="990" y="920.055" type="curve"/>
      <point x="80" y="920.055" type="line"/>
      <point x="80" y="597.949" type="line"/>
      <point x="84" y="597.949" type="line"/>
      <point x="84" y="740.055" type="line"/>
      <point x="890" y="740.055" type="line"/>
      <point x="808" y="575.212"/>
      <point x="686" y="338.37"/>
      <point x="608" y="196.264" type="curve" smooth="yes"/>
      <point x="496" y="-10.262"/>
      <point x="336" y="-207.315"/>
      <point x="336" y="-357" type="curve" smooth="yes"/>
      <point x="336" y="-468.789"/>
      <point x="390" y="-519.947"/>
    </contour>
  </outline>
</glyph>
<glyph name="tbar.sc" format="2">
  <advance width="1197"/>
  <outline>
    <contour>
      <point x="360" y="548" type="line"/>
      <point x="840" y="548" type="line"/>
      <point x="840" y="552" type="line"/>
      <point x="360" y="552" type="line"/>
    </contour>
    <component base="t.sc"/>
  </outline>
</glyph>
<glyph name="two.osf" format="2">
  <advance width="929"/>
  <outline>
    <contour>
      <point x="80" y="0" type="line"/>
      <point x="859" y="0" type="line"/>
      <point x="859" y="330" type="line"/>
      <point x="855" y="330" type="line"/>
      <point x="855" y="180" type="line"/>
      <point x="162" y="180" type="line"/>
      <point x="432" y="357" type="line" smooth="yes"/>
      <point x="555.868" y="438.202"/>
      <point x="798" y="551"/>
      <point x="798" y="701" type="curve" smooth="yes"/>
      <point x="798" y="841"/>
      <point x="672" y="940"/>
      <point x="450" y="940" type="curve" smooth="yes"/>
      <point x="251" y="940"/>
      <point x="107" y="798"/>
      <point x="107" y="664" type="curve" smooth="yes"/>
      <point x="107" y="560"/>
      <point x="160" y="514"/>
      <point x="230" y="514" type="curve" smooth="yes"/>
      <point x="300" y="514"/>
      <point x="355" y="552"/>
      <point x="355" y="632" type="curve" smooth="yes"/>
      <point x="355" y="702"/>
      <point x="297" y="744"/>
      <point x="238" y="744" type="curve" smooth="yes"/>
      <point x="172" y="744"/>
      <point x="109" y="704"/>
      <point x="109" y="664" type="curve"/>
      <point x="113" y="664" type="line"/>
      <point x="113" y="792"/>
      <point x="250" y="918"/>
      <point x="390" y="918" type="curve" smooth="yes"/>
      <point x="502" y="918"/>
      <point x="598" y="813"/>
      <point x="598" y="660" type="curve" smooth="yes"/>
      <point x="598" y="552"/>
      <point x="579.416" y="461.344"/>
      <point x="392" y="337" type="curve" smooth="yes"/>
      <point x="80" y="130" type="line"/>
    </contour>
  </outline>
</glyph>
<glyph name="v.sc" format="2">
  <advance width="1198"/>
  <anchor x="564" y="0" name="bottom"/>
  <anchor x="822" y="0" name="cedilla"/>
  <anchor x="650" y="1020" name="top"/>
  <outline>
    <contour>
      <point x="559" y="-29" type="line"/>
      <point x="563" y="-29" type="line"/>
      <point x="1022" y="1020" type="line"/>
      <point x="1017" y="1020" type="line"/>
      <point x="663" y="210" type="line"/>
      <point x="311" y="1020" type="line"/>
      <point x="91" y="1020" type="line"/>
    </contour>
    <contour>
      <point x="0" y="1016" type="line"/>
      <point x="500" y="1016" type="line"/>
      <point x="500" y="1020" type="line"/>
      <point x="0" y="1020" type="line"/>
    </contour>
    <contour>
      <point x="841" y="1016" type="line"/>
      <point x="1198" y="1016" type="line"/>
      <point x="1198" y="1020" type="line"/>
      <point x="841" y="1020" type="line"/>
    </contour>
  </outline>
</glyph>
<glyph name="y.sc" format="2">
  <advance width="1150"/>
  <anchor x="582" y="0" name="bottom"/>
  <anchor x="592" y="1020" name="top"/>
  <outline>
    <contour>
      <point x="490" y="0" type="line"/>
      <point x="680" y="0" type="line"/>
      <point x="680" y="476" type="line"/>
      <point x="1022" y="1016" type="line"/>
      <point x="1017" y="1016" type="line"/>
      <point x="676" y="478" type="line"/>
      <point x="290" y="1020" type="line"/>
      <point x="70" y="1020" type="line"/>
      <point x="490" y="431" type="line"/>
    </contour>
    <contour>
      <point x="360" y="0" type="line"/>
      <point x="830" y="0" type="line"/>
      <point x="830" y="4" type="line"/>
      <point x="360" y="4" type="line"/>
    </contour>
    <contour>
      <point x="0" y="1016" type="line"/>
      <point x="441" y="1016" type="line"/>
      <point x="441" y="1020" type="line"/>
      <point x="0" y="1020" type="line"/>
    </contour>
    <contour>
      <point x="885" y="1016" type="line"/>
      <point x="1130" y="1016" type="line"/>
      <point x="1130" y="1020" type="line"/>
      <point x="885" y="1020" type="line"/>
    </contour>
  </outline>
</glyph>
<glyph name="z.sc" format="2">
  <advance width="1066"/>
  <anchor x="552" y="0" name="bottom"/>
  <anchor x="522" y="1020" name="top"/>
  <outline>
    <contour>
      <point x="100" y="0" type="line"/>
      <point x="966" y="0" type="line"/>
      <point x="966" y="330" type="line"/>
      <point x="962" y="330" type="line"/>
      <point x="962" y="146"/>
      <point x="846" y="4"/>
      <point x="643" y="4" type="curve" smooth="yes"/>
      <point x="330" y="4" type="line"/>
      <point x="960" y="1016" type="line"/>
      <point x="960" y="1020" type="line"/>
      <point x="134" y="1020" type="line"/>
      <point x="134" y="730" type="line"/>
      <point x="138" y="730" type="line"/>
      <point x="138" y="874"/>
      <point x="255" y="1016"/>
      <point x="458" y="1016" type="curve" smooth="yes"/>
      <point x="730" y="1016" type="line"/>
      <point x="100" y="4" type="line"/>
    </contour>
  </outline>
</glyph>
